<?xml version="1.0" encoding="UTF-8" standalone="no"?>
<!-- Created with Inkscape (http://www.inkscape.org/) -->

<svg
   xmlns:dc="http://purl.org/dc/elements/1.1/"
   xmlns:cc="http://creativecommons.org/ns#"
   xmlns:rdf="http://www.w3.org/1999/02/22-rdf-syntax-ns#"
   xmlns:svg="http://www.w3.org/2000/svg"
   xmlns="http://www.w3.org/2000/svg"
   xmlns:sodipodi="http://sodipodi.sourceforge.net/DTD/sodipodi-0.dtd"
   xmlns:inkscape="http://www.inkscape.org/namespaces/inkscape"
   width="38.700001mm"
   height="5.1500001mm"
   viewBox="0 0 38.699998 5.1500003"
   version="1.1"
   id="svg8"
   inkscape:version="0.92.3 (2405546, 2018-03-11)"
   sodipodi:docname="logo.svg">
  <defs
     id="defs2" />
  <sodipodi:namedview
     id="base"
     pagecolor="#ffffff"
     bordercolor="#666666"
     borderopacity="1.0"
     inkscape:pageopacity="0.0"
     inkscape:pageshadow="2"
     inkscape:zoom="2.56"
     inkscape:cx="209.21553"
     inkscape:cy="94.311009"
     inkscape:document-units="mm"
     inkscape:current-layer="layer1"
     showgrid="false"
     inkscape:window-width="1920"
     inkscape:window-height="1001"
     inkscape:window-x="-9"
     inkscape:window-y="-9"
     inkscape:window-maximized="1"
     showborder="true"
     borderlayer="true"
     inkscape:pagecheckerboard="false"
     units="mm" />
  <metadata
     id="metadata5">
    <rdf:RDF>
      <cc:Work
         rdf:about="">
        <dc:format>image/svg+xml</dc:format>
        <dc:type
           rdf:resource="http://purl.org/dc/dcmitype/StillImage" />
        <dc:title></dc:title>
      </cc:Work>
    </rdf:RDF>
  </metadata>
  <g
     inkscape:label="Capa 1"
     inkscape:groupmode="layer"
     id="layer1"
     transform="translate(0,-291.84998)">
    <flowRoot
       xml:space="preserve"
       id="flowRoot3781"
       style="font-style:normal;font-weight:normal;font-size:40px;line-height:1.25;font-family:sans-serif;letter-spacing:0px;word-spacing:0px;fill:#000000;fill-opacity:1;stroke:none"><flowRegion
         id="flowRegion3783"><rect
           id="rect3785"
           width="422.85715"
           height="168.57143"
           x="-82.85714"
           y="148.23398" /></flowRegion><flowPara
         id="flowPara3787" /></flowRoot>    <g
       id="g4012"
       transform="matrix(0.01204842,0,0,0.01143401,0.48230428,275.73985)"
       style="stroke-width:10.00701046">
      <path
         id="path3899"
         d="M 456,32 H 40 c -4.425781,0 -8,3.585938 -8,8 v 224 c 0,4.42578 3.574219,8 8,8 h 416 c 4.42578,0 8,-3.57422 8,-8 V 40 c 0,-4.414062 -3.57422,-8 -8,-8 z m -72,96 H 112 V 80 H 384 Z M 112,144 H 384 V 256 H 112 Z M 448,256 H 400 V 72 c 0,-4.414062 -3.57422,-8 -8,-8 H 104 c -4.425781,0 -8,3.585938 -8,8 V 256 H 48 V 48 h 400 z m 0,0"
         inkscape:connector-curvature="0"
         style="fill:#006df0;stroke-width:10.00701046" />
      <path
         id="path3901"
         d="m 472,304 c 13.23047,0 24,-10.76953 24,-24 V 24 C 496,10.769531 485.23047,0 472,0 H 24 C 10.769531,0 0,10.769531 0,24 v 256 c 0,13.23047 10.769531,24 24,24 h 192 v 16 h -32 c -22.05469,0 -40,17.94531 -40,40 0,4.42578 3.57422,8 8,8 h 192 c 4.42578,0 8,-3.57422 8,-8 0,-22.05469 -17.94531,-40 -40,-40 h -32 v -16 h 136 v 8 c 0,13.23047 10.76953,24 24,24 h 32 c 4.41406,0 8,3.58594 8,8 0,4.41406 -3.58594,8 -8,8 h -80 c -13.23047,0 -24,10.76953 -24,24 v 8 H 40 c -4.425781,0 -8,3.57422 -8,8 v 96 c 0,4.42578 3.574219,8 8,8 h 416 c 4.42578,0 8,-3.57422 8,-8 v -96 c 0,-4.42578 -3.57422,-8 -8,-8 h -72 v -8 c 0,-4.41406 3.58594,-8 8,-8 h 80 c 13.23047,0 24,-10.76953 24,-24 0,-13.23047 -10.76953,-24 -24,-24 h -32 c -4.41406,0 -8,-3.58594 -8,-8 v -8 z M 448,480 H 48 V 400 H 448 Z M 16,280 V 24 c 0,-4.40625 3.585938,-8 8,-8 h 448 c 4.41406,0 8,3.59375 8,8 v 256 c 0,4.41406 -3.58594,8 -8,8 H 24 c -4.414062,0 -8,-3.58594 -8,-8 z m 318.63281,72 H 161.36719 C 164.67187,342.6875 173.56641,336 184,336 h 128 c 10.43359,0 19.32812,6.6875 22.63281,16 z M 264,320 h -32 v -16 h 32 z m 0,0"
         inkscape:connector-curvature="0"
         style="fill:#006df0;stroke-width:10.00701046" />
      <path
         id="path3903"
         d="m 416,416 h 16 v 16 h -16 z m 0,0"
         inkscape:connector-curvature="0"
         style="fill:#006df0;stroke-width:10.00701046" />
      <path
         id="path3905"
         d="m 416,448 h 16 v 16 h -16 z m 0,0"
         inkscape:connector-curvature="0"
         style="fill:#006df0;stroke-width:10.00701046" />
      <path
         id="path3907"
         d="m 384,416 h 16 v 16 h -16 z m 0,0"
         inkscape:connector-curvature="0"
         style="fill:#006df0;stroke-width:10.00701046" />
      <path
         id="path3909"
         d="m 384,448 h 16 v 16 h -16 z m 0,0"
         inkscape:connector-curvature="0"
         style="fill:#006df0;stroke-width:10.00701046" />
      <path
         id="path3911"
         d="m 352,416 h 16 v 16 h -16 z m 0,0"
         inkscape:connector-curvature="0"
         style="fill:#006df0;stroke-width:10.00701046" />
      <path
         id="path3913"
         d="m 352,448 h 16 v 16 h -16 z m 0,0"
         inkscape:connector-curvature="0"
         style="fill:#006df0;stroke-width:10.00701046" />
      <path
         id="path3915"
         d="m 128,416 h 16 v 16 h -16 z m 0,0"
         inkscape:connector-curvature="0"
         style="fill:#006df0;stroke-width:10.00701046" />
      <path
         id="path3917"
         d="m 128,448 h 112 v 16 H 128 Z m 0,0"
         inkscape:connector-curvature="0"
         style="fill:#006df0;stroke-width:10.00701046" />
      <path
         id="path3919"
         d="m 96,416 h 16 v 16 H 96 Z m 0,0"
         inkscape:connector-curvature="0"
         style="fill:#006df0;stroke-width:10.00701046" />
      <path
         id="path3921"
         d="m 96,448 h 16 v 16 H 96 Z m 0,0"
         inkscape:connector-curvature="0"
         style="fill:#006df0;stroke-width:10.00701046" />
      <path
         id="path3923"
         d="m 64,416 h 16 v 16 H 64 Z m 0,0"
         inkscape:connector-curvature="0"
         style="fill:#006df0;stroke-width:10.00701046" />
      <path
         id="path3925"
         d="m 64,448 h 16 v 16 H 64 Z m 0,0"
         inkscape:connector-curvature="0"
         style="fill:#006df0;stroke-width:10.00701046" />
      <path
         id="path3927"
         d="m 224,416 h 16 v 16 h -16 z m 0,0"
         inkscape:connector-curvature="0"
         style="fill:#006df0;stroke-width:10.00701046" />
      <path
         id="path3929"
         d="m 192,416 h 16 v 16 h -16 z m 0,0"
         inkscape:connector-curvature="0"
         style="fill:#006df0;stroke-width:10.00701046" />
      <path
         id="path3931"
         d="m 288,416 h 16 v 16 h -16 z m 0,0"
         inkscape:connector-curvature="0"
         style="fill:#006df0;stroke-width:10.00701046" />
      <path
         id="path3933"
         d="m 288,448 h 16 v 16 h -16 z m 0,0"
         inkscape:connector-curvature="0"
         style="fill:#006df0;stroke-width:10.00701046" />
      <path
         id="path3935"
         d="m 256,416 h 16 v 16 h -16 z m 0,0"
         inkscape:connector-curvature="0"
         style="fill:#006df0;stroke-width:10.00701046" />
      <path
         id="path3937"
         d="m 256,448 h 16 v 16 h -16 z m 0,0"
         inkscape:connector-curvature="0"
         style="fill:#006df0;stroke-width:10.00701046" />
      <path
         id="path3939"
         d="m 160,416 h 16 v 16 h -16 z m 0,0"
         inkscape:connector-curvature="0"
         style="fill:#006df0;stroke-width:10.00701046" />
      <path
         id="path3941"
         d="m 128,96 h 16 v 16 h -16 z m 0,0"
         inkscape:connector-curvature="0"
         style="fill:#006df0;stroke-width:10.00701046" />
      <path
         id="path3943"
         d="m 160,96 h 16 v 16 h -16 z m 0,0"
         inkscape:connector-curvature="0"
         style="fill:#006df0;stroke-width:10.00701046" />
      <path
         id="path3945"
         d="m 192,96 h 16 v 16 h -16 z m 0,0"
         inkscape:connector-curvature="0"
         style="fill:#006df0;stroke-width:10.00701046" />
      <path
         id="path3947"
         d="m 224,96 h 144 v 16 H 224 Z m 0,0"
         inkscape:connector-curvature="0"
         style="fill:#006df0;stroke-width:10.00701046" />
      <path
         id="path3949"
         d="m 162.34375,162.34375 -32,32 c -3.12891,3.12891 -3.12891,8.18359 0,11.3125 l 32,32 11.3125,-11.3125 L 147.3125,200 173.65625,173.65625 Z m 0,0"
         inkscape:connector-curvature="0"
         style="fill:#006df0;stroke-width:10.00701046" />
      <path
         id="path3951"
         d="m 269.65625,194.34375 -32,-32 -11.3125,11.3125 L 252.6875,200 l -26.34375,26.34375 11.3125,11.3125 32,-32 c 3.12891,-3.12891 3.12891,-8.18359 0,-11.3125 z m 0,0"
         inkscape:connector-curvature="0"
         style="fill:#006df0;stroke-width:10.00701046" />
      <path
         id="path3953"
         d="m 176.56641,237.03906 32.00781,-79.99219 14.85937,5.94532 -32.00781,79.99218 z m 0,0"
         inkscape:connector-curvature="0"
         style="fill:#006df0;stroke-width:10.00701046" />
      <path
         id="path3955"
         d="m 288,160 h 16 v 16 h -16 z m 0,0"
         inkscape:connector-curvature="0"
         style="fill:#006df0;stroke-width:10.00701046" />
      <path
         id="path3957"
         d="m 320,160 h 32 v 16 h -32 z m 0,0"
         inkscape:connector-curvature="0"
         style="fill:#006df0;stroke-width:10.00701046" />
      <path
         id="path3959"
         d="m 288,192 h 32 v 16 h -32 z m 0,0"
         inkscape:connector-curvature="0"
         style="fill:#006df0;stroke-width:10.00701046" />
      <path
         id="path3961"
         d="m 336,192 h 16 v 16 h -16 z m 0,0"
         inkscape:connector-curvature="0"
         style="fill:#006df0;stroke-width:10.00701046" />
      <path
         id="path3963"
         d="m 352,224 h 16 v 16 h -16 z m 0,0"
         inkscape:connector-curvature="0"
         style="fill:#006df0;stroke-width:10.00701046" />
      <path
         id="path3965"
         d="m 320,224 h 16 v 16 h -16 z m 0,0"
         inkscape:connector-curvature="0"
         style="fill:#006df0;stroke-width:10.00701046" />
      <path
         id="path3967"
         d="m 272,224 h 32 v 16 h -32 z m 0,0"
         inkscape:connector-curvature="0"
         style="fill:#006df0;stroke-width:10.00701046" />
    </g>
    <flowRoot
       xml:space="preserve"
       id="flowRoot4014"
       style="font-style:normal;font-weight:normal;font-size:40px;line-height:1.25;font-family:sans-serif;letter-spacing:0px;word-spacing:0px;fill:#000000;fill-opacity:1;stroke:none"><flowRegion
         id="flowRegion4016"><rect
           id="rect4018"
           width="243.44676"
           height="190.91884"
           x="77.781746"
           y="167.92554" /></flowRegion><flowPara
         id="flowPara4020" /></flowRoot>    <flowRoot
       xml:space="preserve"
       id="flowRoot4022"
       style="font-style:normal;font-weight:normal;font-size:40px;line-height:1.25;font-family:sans-serif;letter-spacing:0px;word-spacing:0px;fill:#000000;fill-opacity:1;stroke:none"><flowRegion
         id="flowRegion4024"><rect
           id="rect4026"
           width="268.70059"
           height="211.12189"
           x="37.375645"
           y="136.61079" /></flowRegion><flowPara
         id="flowPara4028" /></flowRoot>    <text
       xml:space="preserve"
       style="font-style:normal;font-weight:normal;font-size:2.9831872px;line-height:1.25;font-family:sans-serif;letter-spacing:0px;word-spacing:0px;fill:#0000ff;fill-opacity:1;stroke:none;stroke-width:0.74631971"
       x="6.6617994"
       y="274.32974"
       id="text4048"
       transform="scale(0.98107438,1.0192907)"><tspan
         sodipodi:role="line"
         id="tspan4046"
         x="6.6617994"
         y="274.32974"
         style="fill:#0000ff;stroke-width:0.74631971">LAPP</tspan></text>
  </g>
</svg>
